<svg width="42" height="42" viewBox="0 0 42 42" fill="none" xmlns="http://www.w3.org/2000/svg">
<path d="M21 42C32.598 42 42 32.598 42 21C42 9.40202 32.598 0 21 0C9.40202 0 0 9.40202 0 21C0 32.598 9.40202 42 21 42Z" fill="#29A71A"/>
<path d="M30.2591 11.7409C28.0742 9.53423 25.1727 8.18095 22.0779 7.92516C18.9832 7.66938 15.8988 8.52792 13.3813 10.3459C10.8638 12.164 9.07882 14.8218 8.34833 17.8399C7.61784 20.8581 7.98994 24.038 9.39751 26.806L8.0158 33.5141C8.00147 33.5809 8.00106 33.6499 8.01461 33.7168C8.02816 33.7837 8.05538 33.8471 8.09455 33.9031C8.15195 33.988 8.23387 34.0533 8.32938 34.0904C8.4249 34.1275 8.52946 34.1346 8.6291 34.1107L15.2035 32.5524C17.9638 33.9243 21.1212 34.2725 24.114 33.5349C27.1068 32.7974 29.741 31.022 31.5476 28.5246C33.3543 26.0272 34.2164 22.9698 33.9804 19.8965C33.7445 16.8232 32.4258 13.9332 30.2591 11.7409V11.7409ZM28.2092 28.1018C26.6975 29.6093 24.7509 30.6044 22.6436 30.9469C20.5364 31.2894 18.3748 30.962 16.4635 30.0109L15.5472 29.5575L11.5166 30.512L11.5285 30.4619L12.3638 26.4051L11.9151 25.5198C10.9385 23.6018 10.594 21.4239 10.931 19.2981C11.2679 17.1724 12.269 15.2078 13.7908 13.6858C15.703 11.7742 18.2962 10.7003 21 10.7003C23.7039 10.7003 26.297 11.7742 28.2092 13.6858C28.2255 13.7045 28.243 13.722 28.2617 13.7383C30.1502 15.6548 31.2045 18.2402 31.1946 20.9309C31.1848 23.6215 30.1117 26.1991 28.2092 28.1018V28.1018Z" fill="white"/>
<path d="M27.8512 25.126C27.3573 25.9039 26.5769 26.8561 25.5961 27.0923C23.8779 27.5076 21.241 27.1067 17.9598 24.0473L17.9192 24.0116C15.0341 21.3364 14.2848 19.11 14.4661 17.344C14.5664 16.3418 15.4016 15.435 16.1056 14.8431C16.2169 14.7482 16.3488 14.6805 16.4909 14.6457C16.6331 14.6108 16.7813 14.6097 16.924 14.6424C17.0666 14.6751 17.1996 14.7407 17.3123 14.834C17.425 14.9273 17.5144 15.0456 17.5732 15.1796L18.6351 17.566C18.7041 17.7207 18.7297 17.8913 18.7091 18.0595C18.6885 18.2276 18.6225 18.387 18.5182 18.5205L17.9812 19.2173C17.866 19.3612 17.7965 19.5363 17.7816 19.72C17.7667 19.9037 17.8072 20.0877 17.8977 20.2483C18.1984 20.7756 18.9191 21.5512 19.7185 22.2695C20.6158 23.0809 21.6109 23.823 22.2409 24.076C22.4095 24.1449 22.5948 24.1617 22.773 24.1242C22.9512 24.0868 23.1142 23.9969 23.2408 23.866L23.8636 23.2384C23.9838 23.1199 24.1333 23.0353 24.2968 22.9934C24.4603 22.9515 24.6319 22.9537 24.7943 22.9997L27.3167 23.7156C27.4558 23.7583 27.5834 23.8323 27.6896 23.9318C27.7957 24.0313 27.8778 24.1538 27.9293 24.2899C27.9809 24.426 28.0007 24.5721 27.9872 24.717C27.9736 24.8619 27.9271 25.0018 27.8512 25.126V25.126Z" fill="white"/>
</svg>
