<svg width="42" height="42" viewBox="0 0 42 42" fill="none" xmlns="http://www.w3.org/2000/svg">
<g clip-path="url(#clip0_1_49)">
<path d="M21 42C32.598 42 42 32.598 42 21C42 9.40202 32.598 0 21 0C9.40202 0 0 9.40202 0 21C0 32.598 9.40202 42 21 42Z" fill="#334C8C"/>
<path d="M26.3218 19.0133L25.9736 21.9367C25.9586 22.0725 25.8938 22.1979 25.7918 22.2887C25.6897 22.3796 25.5576 22.4294 25.421 22.4286H22.3815V31.1049C22.3823 31.2085 22.342 31.3081 22.2695 31.3822C22.1971 31.4562 22.0983 31.4985 21.9947 31.5H18.8972C18.8457 31.4993 18.7948 31.4884 18.7474 31.468C18.7001 31.4476 18.6573 31.4181 18.6213 31.3812C18.5854 31.3442 18.5571 31.3006 18.5381 31.2527C18.519 31.2048 18.5096 31.1536 18.5103 31.1021L18.5269 22.4286H16.2252C16.0786 22.4286 15.9381 22.3703 15.8344 22.2667C15.7308 22.1631 15.6726 22.0225 15.6726 21.8759V18.9525C15.6726 18.8059 15.7308 18.6654 15.8344 18.5617C15.9381 18.4581 16.0786 18.3999 16.2252 18.3999H18.5131V15.5649C18.5131 12.285 20.4639 10.5 23.321 10.5H25.6614C25.808 10.5 25.9485 10.5582 26.0522 10.6619C26.1558 10.7655 26.214 10.9061 26.214 11.0526V13.5146C26.214 13.6612 26.1558 13.8017 26.0522 13.9054C25.9485 14.009 25.808 14.0672 25.6614 14.0672H24.2273C22.6744 14.0921 22.3815 14.8354 22.3815 15.9462V18.3916H25.783C25.8606 18.3929 25.937 18.4106 26.0073 18.4434C26.0777 18.4763 26.1403 18.5235 26.1911 18.5822C26.2419 18.6408 26.2799 18.7095 26.3024 18.7838C26.3249 18.8581 26.3315 18.9363 26.3218 19.0133Z" fill="white"/>
</g>
<defs>
<clipPath id="clip0_1_49">
<rect width="42" height="42" fill="white"/>
</clipPath>
</defs>
</svg>
