<svg width="42" height="42" viewBox="0 0 42 42" fill="none" xmlns="http://www.w3.org/2000/svg">
<circle cx="21" cy="21" r="21" fill="url(#paint0_linear_1_69)"/>
<path d="M21.0003 10.5101C16.6995 10.5101 12.6155 10.1278 11.0555 14.1282C10.4112 15.7804 10.5047 17.9261 10.5047 20.9985C10.5047 23.6946 10.4183 26.2285 11.0555 27.8677C12.6119 31.8704 16.7291 31.4869 20.9979 31.4869C25.1163 31.4869 29.3626 31.9154 30.9415 27.8677C31.587 26.1989 31.4922 24.0852 31.4922 20.9985C31.4922 16.9012 31.7185 14.256 29.7297 12.27C27.7162 10.258 24.9931 10.5101 20.9955 10.5101H21.0003ZM20.0598 12.4002C29.0309 12.386 30.1727 11.3895 29.5426 25.2332C29.3187 30.1294 25.5877 29.5921 21.0014 29.5921C12.6391 29.5921 12.3987 29.353 12.3987 20.9938C12.3987 12.5375 13.062 12.4049 20.0598 12.3978V12.4002ZM26.6028 14.1412C25.9075 14.1412 25.3437 14.7045 25.3437 15.3993C25.3437 16.094 25.9075 16.6574 26.6028 16.6574C27.298 16.6574 27.8618 16.094 27.8618 15.3993C27.8618 14.7045 27.298 14.1412 26.6028 14.1412ZM21.0003 15.6123C18.0237 15.6123 15.611 18.0243 15.611 20.9985C15.611 23.9727 18.0237 26.3836 21.0003 26.3836C23.9768 26.3836 26.3884 23.9727 26.3884 20.9985C26.3884 18.0243 23.9768 15.6123 21.0003 15.6123ZM21.0003 17.5024C25.6256 17.5024 25.6315 24.4947 21.0003 24.4947C16.3761 24.4947 16.369 17.5024 21.0003 17.5024Z" fill="white"/>
<defs>
<linearGradient id="paint0_linear_1_69" x1="34.2632" y1="5.52632" x2="9.94737" y2="39.7895" gradientUnits="userSpaceOnUse">
<stop stop-color="#CF3A9C"/>
<stop offset="0.473958" stop-color="#FB5245"/>
<stop offset="1" stop-color="#FFD954"/>
</linearGradient>
</defs>
</svg>
