<svg width="42" height="42" viewBox="0 0 42 42" fill="none" xmlns="http://www.w3.org/2000/svg">
<g clip-path="url(#clip0_1_64)">
<path d="M21 42C32.598 42 42 32.598 42 21C42 9.40202 32.598 0 21 0C9.40202 0 0 9.40202 0 21C0 32.598 9.40202 42 21 42Z" fill="#00A6DE"/>
<path d="M31.4585 14.6448C30.9621 15.3904 30.3556 16.0565 29.6597 16.6205C29.5719 16.6936 29.5016 16.7853 29.4538 16.8891C29.406 16.9928 29.382 17.1059 29.3834 17.2201V17.2891C29.3753 18.7866 29.1002 20.2706 28.571 21.6715C28.0257 23.1418 27.2156 24.4998 26.1809 25.6781C24.7903 27.2611 23.0015 28.4432 20.9999 29.1016C19.6848 29.5285 18.3097 29.7421 16.927 29.7344C14.7335 29.7341 12.579 29.1536 10.6823 28.0516C10.6143 28.013 10.5608 27.9532 10.5299 27.8814C10.499 27.8096 10.4924 27.7297 10.511 27.6537C10.5301 27.579 10.5737 27.5129 10.6348 27.4658C10.6959 27.4187 10.771 27.3934 10.8481 27.394H11.3731C13.0401 27.3981 14.6702 26.9035 16.0539 25.9737C15.2293 25.8402 14.4576 25.4817 13.8238 24.9376C13.1899 24.3934 12.7186 23.6849 12.4618 22.8901C12.4486 22.8503 12.4462 22.8077 12.4549 22.7666C12.4635 22.7256 12.4828 22.6876 12.5109 22.6565C12.5389 22.6253 12.5747 22.6021 12.6146 22.5893C12.6545 22.5765 12.6971 22.5744 12.7381 22.5833C12.9896 22.6307 13.2449 22.6547 13.5007 22.6552H13.5974C12.8005 22.2891 12.1266 21.6999 11.6574 20.959C11.1881 20.218 10.9435 19.357 10.9531 18.4801C10.9534 18.439 10.9643 18.3988 10.9848 18.3632C11.0052 18.3276 11.0346 18.298 11.0699 18.2771C11.1052 18.2562 11.1454 18.2449 11.1864 18.2441C11.2274 18.2434 11.2679 18.2533 11.304 18.2728C11.6282 18.4538 11.976 18.5887 12.3374 18.6735C11.623 17.9667 11.1635 17.0427 11.031 16.0465C10.8985 15.0503 11.1004 14.0383 11.6052 13.1693C11.6243 13.1359 11.6512 13.1076 11.6836 13.087C11.716 13.0663 11.753 13.0538 11.7913 13.0505C11.8296 13.0472 11.8682 13.0533 11.9036 13.0682C11.9391 13.0832 11.9703 13.1064 11.9948 13.1361C12.9928 14.3718 14.2288 15.3945 15.6295 16.1435C17.0302 16.8925 18.567 17.3525 20.1489 17.4964H20.171C20.1942 17.4957 20.2171 17.4903 20.2382 17.4805C20.2593 17.4707 20.2781 17.4567 20.2937 17.4394C20.3092 17.4221 20.321 17.4018 20.3284 17.3798C20.3358 17.3577 20.3387 17.3344 20.3368 17.3112C20.2751 16.7567 20.3106 16.1957 20.4418 15.6533C20.6201 14.9162 20.986 14.2377 21.5041 13.6838C22.0222 13.1299 22.6747 12.7194 23.3984 12.4923C23.8626 12.3473 24.3461 12.2728 24.8324 12.2712C25.9353 12.27 27.0006 12.6719 27.8277 13.4014C27.9349 13.4972 28.0735 13.5503 28.2173 13.5506C28.264 13.5496 28.3103 13.5431 28.3555 13.5312C29.1327 13.3349 29.8773 13.0268 30.566 12.6166C30.6072 12.5912 30.6553 12.5792 30.7036 12.5821C30.752 12.5851 30.7982 12.6029 30.836 12.6331C30.8738 12.6634 30.9014 12.7046 30.9149 12.7511C30.9284 12.7976 30.9272 12.8472 30.9114 12.893C30.6815 13.6163 30.2717 14.2695 29.7205 14.7912C30.217 14.6728 30.7017 14.5091 31.1684 14.3022C31.2144 14.2844 31.2649 14.2814 31.3127 14.2936C31.3605 14.3058 31.4034 14.3326 31.4353 14.3703C31.4672 14.408 31.4866 14.4546 31.4907 14.5038C31.4949 14.553 31.4836 14.6023 31.4585 14.6448Z" fill="white"/>
</g>
<defs>
<clipPath id="clip0_1_64">
<rect width="42" height="42" fill="white"/>
</clipPath>
</defs>
</svg>
