<svg width="25" height="25" viewBox="0 0 25 25" fill="none" xmlns="http://www.w3.org/2000/svg">
<path d="M23.5303 16.5722C20.5127 22.9003 15.8692 24.2676 12.5 24.2676C8.70602 24.2676 5.1318 22.373 2.93453 19.2822C0.722715 16.1621 0.195274 12.207 1.46969 8.42769L1.70411 7.94434C3.49117 3.68159 7.82716 0.732422 12.5 0.732422C16.294 0.732422 19.8682 2.62695 22.0655 5.71777C24.2773 8.83789 24.8047 12.793 23.5303 16.5722Z" fill="#65B1FC"/>
<path d="M23.5303 16.5722C20.5126 22.9003 15.8691 24.2676 12.5 24.2676V0.732422C16.294 0.732422 19.8682 2.62695 22.0655 5.71777C24.2773 8.83789 24.8047 12.793 23.5303 16.5722Z" fill="#1689FC"/>
<path d="M22.666 5.29292C20.3223 2.01167 16.5283 0 12.5 0C7.47561 0 2.876 3.1543 0.986352 7.7978L0.73728 8.31055C-0.607691 12.4061 -0.0840094 16.2853 2.33401 19.707C4.67771 22.9882 8.4717 25 12.5 25C17.4658 25 22.0069 21.9189 23.9551 17.3779L24.1748 16.9384C25.6389 12.7725 25.1261 8.77041 22.666 5.29292ZM3.53518 18.8574C1.45515 15.9277 0.971704 12.2217 2.17288 8.66211L2.36331 8.26655C3.54983 5.42476 5.90823 3.22266 8.72068 2.16792C6.94827 4.48242 5.87888 8.98433 6.01077 10.4492C5.99612 10.4932 5.98142 10.5371 5.98142 10.5957C5.60056 15.5029 6.71384 20.2393 8.80857 22.8906C6.71389 22.1289 4.85359 20.7178 3.53518 18.8574ZM11.7676 23.4033C11.255 23.2275 10.7422 22.8418 10.2588 22.3291C8.20803 20.1172 7.0801 15.4443 7.44631 10.7128V10.5811C7.44631 10.5371 7.46096 10.4785 7.46096 10.4345C7.88572 5.87886 9.67288 2.28516 11.7676 1.59663V23.4033ZM13.2324 23.3886V1.59663C15.4883 2.3437 17.378 6.49409 17.5976 11.4453C17.8027 16.0156 16.6602 20.3076 14.6826 22.3877C14.2138 22.871 13.7305 23.2275 13.2324 23.3886ZM22.8272 16.3379C21.1865 19.7949 18.8721 21.9238 16.1915 22.876C18.1543 20.4004 19.2676 15.9863 19.0625 11.3867C18.8867 7.49019 17.7881 4.13091 16.1914 2.10938C18.2862 2.87104 20.1465 4.28223 21.4648 6.14253C23.5449 9.07222 24.0283 12.7783 22.8272 16.3379Z" fill="#96EBE6"/>
<path d="M22.666 5.29292C20.3223 2.01167 16.5283 0 12.5 0V25C17.4658 25 22.0068 21.9189 23.9551 17.3779L24.1748 16.9384C25.6389 12.7725 25.126 8.77041 22.666 5.29292ZM13.2324 23.3886V1.59663C15.4882 2.3437 17.378 6.49409 17.5976 11.4453C17.8027 16.0156 16.6602 20.3076 14.6826 22.3877C14.2138 22.871 13.7305 23.2275 13.2324 23.3886ZM22.8271 16.3379C21.1865 19.7949 18.8721 21.9238 16.1915 22.876C18.1543 20.4004 19.2676 15.9863 19.0625 11.3867C18.8867 7.49019 17.788 4.13091 16.1914 2.10938C18.2861 2.87104 20.1464 4.28223 21.4648 6.14253C23.5449 9.07222 24.0283 12.7783 22.8271 16.3379Z" fill="#00C8C8"/>
<path d="M22.7539 7.37305H2.24609C1.03022 7.37305 0 8.35444 0 9.57031V15.4297C0 16.6455 1.03022 17.627 2.24609 17.627H22.7539C23.9698 17.627 25 16.6455 25 15.4297V9.57031C25 8.35444 23.9698 7.37305 22.7539 7.37305Z" fill="#0053BF"/>
<path d="M25 9.57031V15.4297C25 16.6455 23.9698 17.627 22.7539 17.627H12.5V7.37305H22.7539C23.9698 7.37305 25 8.35444 25 9.57031Z" fill="#05377F"/>
<path d="M16.0889 11.3574L14.624 14.2871C14.4922 14.5362 14.2432 14.6973 13.9648 14.6973C13.6865 14.6973 13.4375 14.5362 13.3057 14.2871L12.5 12.6758L11.6943 14.2871C11.4454 14.7852 10.6249 14.7852 10.3759 14.2871L8.91107 11.3574C8.73529 11.0058 8.88183 10.5664 9.24804 10.376C9.5996 10.2002 10.039 10.3467 10.2294 10.7129L11.0351 12.3242L11.8408 10.7129C11.9727 10.4639 12.2364 10.332 12.5 10.332C12.7636 10.332 13.0273 10.4639 13.1592 10.7129L13.9648 12.3242L14.7705 10.7129C14.9609 10.3467 15.4004 10.2002 15.7519 10.376C16.1181 10.5664 16.2646 11.0058 16.0889 11.3574Z" fill="#E1F1FA"/>
<path d="M21.2891 14.6973C21.0115 14.6973 20.7584 14.5406 20.6339 14.2924L19.8242 12.6731L19.0146 14.2924C18.7656 14.7888 17.9531 14.7888 17.7042 14.2924L16.3009 11.4851C16.2101 11.3735 16.1514 11.2355 16.1414 11.0838C16.1156 10.6804 16.3996 10.3335 16.8029 10.307C17.1091 10.2999 17.4181 10.4444 17.5497 10.7076L18.3594 12.3269L19.1691 10.7076C19.418 10.2112 20.2305 10.2112 20.4794 10.7076L21.2891 12.3269L22.0987 10.7076C22.2804 10.3449 22.7203 10.2012 23.0815 10.38C23.4434 10.561 23.5901 11.0008 23.4091 11.3628L21.9443 14.2924C21.8198 14.5406 21.5666 14.6973 21.2891 14.6973Z" fill="#BFE1FF"/>
<path d="M8.1527 10.3042C7.86447 10.3013 7.58195 10.4443 7.45031 10.7076L6.64064 12.3269L5.83097 10.7076C5.56715 10.1818 4.78156 10.1857 4.52062 10.7076L3.71095 12.3269L2.90129 10.7076C2.7196 10.3449 2.27902 10.2012 1.91852 10.38C1.55661 10.561 1.40998 11.0008 1.59093 11.3628L3.05578 14.2924C3.18024 14.5406 3.43341 14.6973 3.71095 14.6973C3.98849 14.6973 4.24167 14.5406 4.36613 14.2924L5.1758 12.6731L5.98547 14.2924C6.10993 14.5406 6.3631 14.6973 6.64064 14.6973C6.91818 14.6973 7.17135 14.5406 7.29582 14.2924L8.67555 11.533C8.78 11.4142 8.84723 11.2576 8.85866 11.0838C8.88439 10.6804 8.55612 10.3306 8.1527 10.3042Z" fill="#E1F1FA"/>
<path d="M16.0889 11.3574L14.624 14.2871C14.4922 14.5362 14.2432 14.6973 13.9648 14.6973C13.6865 14.6973 13.4375 14.5362 13.3057 14.2871L12.5 12.6758V10.332C12.7637 10.332 13.0273 10.4639 13.1592 10.7129L13.9648 12.3242L14.7705 10.7129C14.9609 10.3467 15.4004 10.2002 15.7519 10.376C16.1181 10.5664 16.2646 11.0058 16.0889 11.3574Z" fill="#BFE1FF"/>
</svg>
