<svg width="26" height="26" viewBox="0 0 26 26" fill="none" xmlns="http://www.w3.org/2000/svg">
<path fill-rule="evenodd" clip-rule="evenodd" d="M19.5 26H6.5C4.77612 25.9999 3.12286 25.3151 1.90389 24.0961C0.684919 22.8771 7.5415e-05 21.2239 0 19.5L0 6.5C7.5415e-05 4.77612 0.684919 3.12286 1.90389 1.90389C3.12286 0.684919 4.77612 7.5415e-05 6.5 0L19.5 0C21.2239 0 22.8772 0.684819 24.0962 1.90381C25.3152 3.12279 26 4.77609 26 6.5V19.5C26 21.2239 25.3152 22.8772 24.0962 24.0962C22.8772 25.3152 21.2239 26 19.5 26Z" fill="#FF0000"/>
<path fill-rule="evenodd" clip-rule="evenodd" d="M12.1875 7.3125H19.5C20.4373 7.31244 21.3388 6.95242 22.0184 6.30679C22.6979 5.66116 23.1035 4.77923 23.1515 3.84313C23.1994 2.90703 22.8861 1.98825 22.2761 1.27654C21.6662 0.564838 20.8062 0.114555 19.8737 0.0186875C19.7494 0.0117812 19.6263 0 19.5 0H6.5C4.77612 7.5415e-05 3.12286 0.684919 1.90389 1.90389C0.684919 3.12286 7.5415e-05 4.77612 0 6.5L0 19.5C7.54177e-05 16.2677 1.28414 13.1678 3.56972 10.8822C5.8553 8.59663 8.9552 7.31257 12.1875 7.3125Z" fill="#FF5A51"/>
<path fill-rule="evenodd" clip-rule="evenodd" d="M19.5 13C18.2144 13 16.9577 13.3812 15.8888 14.0954C14.8199 14.8097 13.9868 15.8248 13.4948 17.0126C13.0028 18.2003 12.8741 19.5072 13.1249 20.7681C13.3757 22.029 13.9948 23.1872 14.9038 24.0962C15.8129 25.0052 16.971 25.6243 18.2319 25.8751C19.4928 26.1259 20.7997 25.9972 21.9874 25.5052C23.1752 25.0132 24.1903 24.1801 24.9046 23.1112C25.6188 22.0423 26 20.7856 26 19.5V6.5C26 8.22391 25.3152 9.87721 24.0962 11.0962C22.8772 12.3152 21.2239 13 19.5 13Z" fill="#D5002C"/>
<path fill-rule="evenodd" clip-rule="evenodd" d="M10.1757 7.26212C10.0527 7.1863 9.91157 7.14471 9.76704 7.14163C9.62251 7.13856 9.47977 7.17411 9.35357 7.24462C9.22737 7.31513 9.12227 7.41805 9.04913 7.54275C8.97599 7.66744 8.93745 7.8094 8.9375 7.95396V18.046C8.93745 18.1906 8.97599 18.3325 9.04913 18.4572C9.12227 18.5819 9.22737 18.6849 9.35357 18.7554C9.47977 18.8259 9.62251 18.8614 9.76704 18.8584C9.91157 18.8553 10.0527 18.8137 10.1757 18.7379C12.2472 17.4635 16.3828 14.9183 18.3755 13.6918C18.4937 13.6192 18.5913 13.5174 18.659 13.3963C18.7267 13.2752 18.7623 13.1387 18.7623 13C18.7623 12.8612 18.7267 12.7248 18.659 12.6037C18.5913 12.4826 18.4937 12.3808 18.3755 12.3082C16.3828 11.0817 12.2472 8.53653 10.1757 7.26212Z" fill="white"/>
</svg>
